<?xml version="1.0" encoding="UTF-8" standalone="no"?>
<svg
   xmlns:dc="http://purl.org/dc/elements/1.1/"
   xmlns:cc="http://creativecommons.org/ns#"
   xmlns:rdf="http://www.w3.org/1999/02/22-rdf-syntax-ns#"
   xmlns:svg="http://www.w3.org/2000/svg"
   xmlns="http://www.w3.org/2000/svg"
   xmlns:sodipodi="http://sodipodi.sourceforge.net/DTD/sodipodi-0.dtd"
   xmlns:inkscape="http://www.inkscape.org/namespaces/inkscape"
   viewBox="0 0 500 500"
   height="533.33331"
   width="533.33331"
   xml:space="preserve"
   id="svg2"
   version="1.1"
   inkscape:version="0.92.3 (2405546, 2018-03-11)"
   sodipodi:docname="tc-s_frilagd.svg"
   inkscape:export-filename="/home/kenneth/Dokument/Dropbox/TCS/Logotyper/TeknikCollege/tc-s.png"
   inkscape:export-xdpi="71"
   inkscape:export-ydpi="71"><sodipodi:namedview
     pagecolor="#ffffff"
     bordercolor="#666666"
     borderopacity="1"
     objecttolerance="10"
     gridtolerance="10"
     guidetolerance="10"
     inkscape:pageopacity="0"
     inkscape:pageshadow="2"
     inkscape:window-width="1600"
     inkscape:window-height="835"
     id="namedview47"
     showgrid="false"
     inkscape:zoom="0.84096492"
     inkscape:cx="-126.4264"
     inkscape:cy="269.59584"
     inkscape:window-x="0"
     inkscape:window-y="0"
     inkscape:window-maximized="1"
     inkscape:current-layer="layer1"
     fit-margin-top="0"
     fit-margin-left="0"
     fit-margin-right="0"
     fit-margin-bottom="0"
     showborder="true" /><metadata
     id="metadata8"><rdf:RDF><cc:Work
         rdf:about=""><dc:format>image/svg+xml</dc:format><dc:type
           rdf:resource="http://purl.org/dc/dcmitype/StillImage" /><dc:title></dc:title></cc:Work></rdf:RDF></metadata><defs
     id="defs6"><clipPath
       id="clipPath42"
       clipPathUnits="userSpaceOnUse"><path
         id="path40"
         d="M 0,841.89 H 595.276 V 0 H 0 Z"
         inkscape:connector-curvature="0" /></clipPath><clipPath
       clipPathUnits="userSpaceOnUse"
       id="clipPath40"><path
         d="M 0,841.89 H 595.276 V 0 H 0 Z"
         id="path38"
         inkscape:connector-curvature="0" /></clipPath><clipPath
       clipPathUnits="userSpaceOnUse"
       id="clipPath104"><path
         d="M 0,841.89 H 595.276 V 0 H 0 Z"
         id="path102"
         inkscape:connector-curvature="0" /></clipPath><clipPath
       clipPathUnits="userSpaceOnUse"
       id="clipPath176"><path
         d="M 0,841.89 H 595.276 V 0 H 0 Z"
         id="path174"
         inkscape:connector-curvature="0" /></clipPath></defs><g
     inkscape:groupmode="layer"
     id="layer3"
     inkscape:label="Layer 3"
     transform="translate(33.633128,64.756027)" /><g
     inkscape:groupmode="layer"
     id="layer1"
     inkscape:label="Layer 1"
     style="display:inline"
     transform="translate(-175.33922,-341.90172)"><text
   xml:space="preserve"
   style="font-style:normal;font-weight:normal;line-height:0%;font-family:sans-serif;letter-spacing:100px;word-spacing:0px;fill:#000000;fill-opacity:1;stroke:none;stroke-width:1px;stroke-linecap:butt;stroke-linejoin:miter;stroke-opacity:1"
   x="229.74985"
   y="770.64038"
   id="text4217"><tspan
     sodipodi:role="line"
     id="tspan4219"
     x="229.74985"
     y="770.64038"
     style="font-size:40px;line-height:1.25"> </tspan></text>


<g
   id="g4301"><g
     style="fill:#29568f;fill-opacity:1"
     transform="matrix(1.3333333,0,0,-1.3333333,236.23827,541.58383)"
     id="g14"><path
       id="path16"
       style="fill:#29568f;fill-opacity:1;fill-rule:nonzero;stroke:none"
       d="M 0,0 H 40.953 V -10.281 H 27.103 V -53.013 H 13.851 v 42.732 H 0 Z"
       inkscape:connector-curvature="0" /></g><g
     style="fill:#29568f;fill-opacity:1"
     transform="matrix(1.3333333,0,0,-1.3333333,299.9232,612.2681)"
     id="g18"><path
       id="path20"
       style="fill:#29568f;fill-opacity:1;fill-rule:nonzero;stroke:none"
       d="M 0,0 V 53.013 H 39.018 V 42.732 H 13.256 V 33.053 H 37.303 V 22.785 H 13.256 V 10.273 H 41.253 V 0 Z"
       inkscape:connector-curvature="0" /></g><g
     style="fill:#29568f;fill-opacity:1"
     transform="matrix(1.3333333,0,0,-1.3333333,365.0716,541.58383)"
     id="g22"><path
       id="path24"
       style="fill:#29568f;fill-opacity:1;fill-rule:nonzero;stroke:none"
       d="M 0,0 H 13.247 V -21.15 L 32.248,0 H 49.814 L 30.533,-20.103 50.408,-53.013 H 35.666 l -14.445,23.525 -7.974,-8.111 V -53.013 H 0 Z"
       inkscape:connector-curvature="0" /></g><g
     style="fill:#29568f;fill-opacity:1"
     transform="matrix(1.3333333,0,0,-1.3333333,439.47,541.58383)"
     id="g26"><path
       id="path28"
       style="fill:#29568f;fill-opacity:1;fill-rule:nonzero;stroke:none"
       d="m 0,0 h 13.402 l 19.282,-33.878 h 0.152 V 0 H 44.898 V -53.013 H 31.645 L 12.211,-19.658 H 12.063 V -53.013 H 0 Z"
       inkscape:connector-curvature="0" /></g><path
     id="path30"
     style="fill:#29568f;fill-opacity:1;fill-rule:nonzero;stroke:none"
     d="m 514.37586,541.5845 h 17.67733 v 70.684 h -17.67733 z"
     inkscape:connector-curvature="0" /><g
     style="fill:#29568f;fill-opacity:1"
     transform="matrix(1.3333333,0,0,-1.3333333,546.99093,541.5929)"
     id="g32"><path
       id="path34"
       style="fill:#29568f;fill-opacity:1;fill-rule:nonzero;stroke:none"
       d="M 0,0 H 13.258 V -21.147 L 32.235,0 H 49.802 L 30.528,-20.1 50.399,-52.995 H 35.657 l -14.442,23.514 -7.957,-8.107 V -52.995 H 0 Z"
       inkscape:connector-curvature="0" /></g><g
     style="fill:#d39100;fill-opacity:1"
     transform="matrix(1.3333333,0,0,-1.3333333,292.99613,642.71076)"
     id="g44"><path
       id="path46"
       style="fill:#d39100;fill-opacity:1;fill-rule:nonzero;stroke:none"
       d="m 0,0 c -4.116,4.254 -9.815,6.863 -15.791,6.863 -11.533,0 -20.876,-10.023 -20.876,-21.422 0,-11.402 9.413,-21.425 21.014,-21.425 5.838,0 11.537,2.746 15.653,6.867 v -7.141 c -4.461,-3.23 -9.957,-5.086 -15.448,-5.086 -14.624,0 -26.983,11.883 -26.983,26.578 0,14.832 12.152,26.989 26.983,26.989 5.766,0 10.852,-1.649 15.448,-5.082 z"
       inkscape:connector-curvature="0" /></g><g
     style="fill:#d39100;fill-opacity:1"
     transform="matrix(1.3333333,0,0,-1.3333333,310.2136,662.12223)"
     id="g48"><path
       id="path50"
       style="fill:#d39100;fill-opacity:1;fill-rule:nonzero;stroke:none"
       d="m 0,0 c 0,-11.676 9.473,-21.426 21.219,-21.426 11.746,0 21.219,9.75 21.219,21.426 0,11.742 -9.34,21.422 -21.219,21.422 C 9.34,21.422 0,11.742 0,0 m 48.211,-0.07 c 0,-14.899 -12.225,-26.715 -26.992,-26.715 -14.758,0 -26.982,11.816 -26.982,26.715 0,14.832 12.224,26.851 26.982,26.851 14.767,0 26.992,-12.019 26.992,-26.851"
       inkscape:connector-curvature="0" /></g><g
     style="fill:#d39100;fill-opacity:1"
     transform="matrix(1.3333333,0,0,-1.3333333,392.61586,689.5025)"
     id="g52"><path
       id="path54"
       style="fill:#d39100;fill-opacity:1;fill-rule:nonzero;stroke:none"
       d="M 0,0 H 14.281 V -5.355 H -5.771 V 46.422 H 0 Z"
       inkscape:connector-curvature="0" /></g><g
     style="fill:#d39100;fill-opacity:1"
     transform="matrix(1.3333333,0,0,-1.3333333,426.944,689.5025)"
     id="g56"><path
       id="path58"
       style="fill:#d39100;fill-opacity:1;fill-rule:nonzero;stroke:none"
       d="M 0,0 H 14.293 V -5.355 H -5.766 V 46.422 H 0 Z"
       inkscape:connector-curvature="0" /></g><g
     style="fill:#d39100;fill-opacity:1"
     transform="matrix(1.3333333,0,0,-1.3333333,453.58986,627.60663)"
     id="g60"><path
       id="path62"
       style="fill:#d39100;fill-opacity:1;fill-rule:nonzero;stroke:none"
       d="M 0,0 H 26.848 V -5.359 H 5.77 v -15.379 h 20.464 v -5.356 H 5.77 v -20.328 h 21.078 v -5.355 H 0 Z"
       inkscape:connector-curvature="0" /></g><g
     style="fill:#d39100;fill-opacity:1"
     transform="matrix(1.3333333,0,0,-1.3333333,566.66799,661.94516)"
     id="g64"><path
       id="path66"
       style="fill:#d39100;fill-opacity:1;fill-rule:nonzero;stroke:none"
       d="m 0,0 c 0.137,-7 -0.617,-12.773 -5.359,-18.258 -4.739,-5.504 -11.946,-8.66 -19.153,-8.66 -14.558,0 -26.644,12.09 -26.644,26.645 0,14.836 12.086,26.921 26.984,26.921 9.067,0 16.41,-4.054 21.91,-11.195 l -4.191,-3.91 c -4.328,6.109 -10.16,9.746 -17.789,9.746 -11.809,0 -21.149,-9.953 -21.149,-21.629 0,-5.496 2.203,-10.715 6.039,-14.629 3.782,-3.777 9.278,-6.59 14.704,-6.59 8.992,0 18.464,6.59 18.464,16.204 H -21.559 V 0 Z"
       inkscape:connector-curvature="0" /></g><g
     style="fill:#d39100;fill-opacity:1"
     transform="matrix(1.3333333,0,0,-1.3333333,577.56386,627.60663)"
     id="g68"><path
       id="path70"
       style="fill:#d39100;fill-opacity:1;fill-rule:nonzero;stroke:none"
       d="M 0,0 H 26.849 V -5.359 H 5.771 v -15.379 h 20.464 v -5.356 H 5.771 v -20.328 h 21.078 v -5.355 H 0 Z"
       inkscape:connector-curvature="0" /></g><path
     id="path72"
     style="fill:#d39100;fill-opacity:1;fill-rule:nonzero;stroke:none"
     d="m 388.35586,504.0325 h 74.73467 v 21.83867 h -74.73467 z"
     inkscape:connector-curvature="0" /><g
     style="fill:#29568f;fill-opacity:1"
     transform="matrix(1.3333333,0,0,-1.3333333,440.48573,401.7609)"
     id="g74"><path
       id="path76"
       style="fill:#29568f;fill-opacity:1;fill-rule:nonzero;stroke:none"
       d="m 0,0 c 0,-6.116 -4.953,-11.075 -11.072,-11.075 -6.108,0 -11.069,4.959 -11.069,11.075 0,6.112 4.961,11.071 11.069,11.071 C -4.953,11.071 0,6.112 0,0"
       inkscape:connector-curvature="0" /></g><g
     style="fill:#29568f;fill-opacity:1"
     transform="matrix(1.3333333,0,0,-1.3333333,357.66933,446.86117)"
     id="g78"><path
       id="path80"
       style="fill:#29568f;fill-opacity:1;fill-rule:nonzero;stroke:none"
       d="m 0,0 c 0,-6.116 -4.949,-11.071 -11.071,-11.071 -6.11,0 -11.069,4.955 -11.069,11.071 0,6.116 4.959,11.067 11.069,11.067 C -4.949,11.067 0,6.116 0,0"
       inkscape:connector-curvature="0" /></g><g
     style="fill:#29568f;fill-opacity:1"
     transform="matrix(1.3333333,0,0,-1.3333333,523.53773,446.86117)"
     id="g82"><path
       id="path84"
       style="fill:#29568f;fill-opacity:1;fill-rule:nonzero;stroke:none"
       d="m 0,0 c 0,-6.116 -4.957,-11.071 -11.078,-11.071 -6.11,0 -11.07,4.955 -11.07,11.071 0,6.116 4.96,11.071 11.07,11.071 C -4.957,11.071 0,6.116 0,0"
       inkscape:connector-curvature="0" /></g><g
     style="fill:#29568f;fill-opacity:1"
     transform="matrix(1.3333333,0,0,-1.3333333,389.1536,442.23877)"
     id="g86"><path
       id="path88"
       style="fill:#29568f;fill-opacity:1;fill-rule:nonzero;stroke:none"
       d="m 0,0 c 4.458,0 8.733,-0.821 12.671,-2.313 4.062,3.206 9.183,5.121 14.762,5.121 5.652,0 10.836,-1.964 14.921,-5.242 C 46.39,-0.863 50.769,0 55.358,0 55.714,0 56.054,-0.021 56.405,-0.027 49.901,8.924 39.343,14.751 27.433,14.751 15.511,14.751 4.962,8.917 -1.552,-0.038 -1.036,-0.021 -0.515,0 0,0"
       inkscape:connector-curvature="0" /></g><g
     style="fill:#29568f;fill-opacity:1"
     transform="matrix(1.3333333,0,0,-1.3333333,461.6992,448.6477)"
     id="g90"><path
       id="path92"
       style="fill:#29568f;fill-opacity:1;fill-rule:nonzero;stroke:none"
       d="m 0,0 c -10.762,0 -20.406,-4.744 -26.961,-12.26 v 0.045 c -6.57,7.524 -16.227,12.278 -26.997,12.278 -19.779,0 -35.811,-16.034 -35.811,-35.81 0,-8.165 2.742,-15.692 7.34,-21.713 h 18.553 c -8.232,3.768 -13.953,12.066 -13.953,21.713 0,10.109 6.286,18.745 15.159,22.227 -0.07,-0.905 -0.119,-1.817 -0.119,-2.74 0,-7.742 2.466,-14.898 6.644,-20.757 h 17.385 c -7.22,4.102 -12.094,11.862 -12.094,20.757 0,1.419 0.131,2.806 0.37,4.155 7.642,-1.038 13.759,-5.536 17.773,-12.75 3.143,-5.662 4.918,-9.435 5.723,-11.262 v -0.12 c 0.797,1.809 2.574,5.604 5.746,11.318 4.012,7.217 10.14,11.716 17.785,12.749 0.23,-1.328 0.352,-2.694 0.352,-4.09 0,-8.895 -4.875,-16.655 -12.09,-20.757 h 17.39 c 4.184,5.859 6.637,13.015 6.637,20.757 0,0.9 -0.047,1.788 -0.113,2.671 8.875,-3.483 15.16,-12.116 15.16,-22.225 0,-9.639 -5.723,-17.943 -13.953,-21.709 h 18.547 c 4.601,6.024 7.34,13.547 7.34,21.709 C 35.813,-16.038 19.781,0 0,0"
       inkscape:connector-curvature="0" /></g><g
     id="text4221"
     style="font-style:normal;font-weight:normal;font-size:40px;line-height:125%;font-family:sans-serif;letter-spacing:0px;word-spacing:0px;fill:#29568f;fill-opacity:1;stroke:none;stroke-width:1px;stroke-linecap:butt;stroke-linejoin:miter;stroke-opacity:1" /><g
     id="g4283"><path
       inkscape:connector-curvature="0"
       transform="translate(0,4.7412109e-6)"
       d="m 332.32687,756.18382 c -4.56,0 -8.16,2.46 -8.16,6.84 0,3.3 2.46,5.4 5.94,7.38 2.22,1.26 4.62,2.76 4.62,5.52 0,2.58 -1.86,3.84 -4.02,3.84 -3.42,0 -5.34,-2.88 -6.36,-6.18 -0.3,-0.36 -1.08,-0.3 -1.38,0.06 -0.12,1.98 0.24,4.92 0.72,6.06 1.5,1.2 3.6,1.8 6.42,1.8 4.44,0 8.64,-2.28 8.64,-6.84 0,-4.26 -2.94,-6.3 -6.12,-8.1 -2.1,-1.2 -4.62,-2.52 -4.62,-4.98 0,-2.16 1.5,-3.66 3.84,-3.66 2.46,0 4.26,1.74 5.28,4.38 0.3,0.36 1.2,0.24 1.44,-0.18 0,-1.62 -0.42,-3.54 -0.96,-4.86 -0.54,-0.48 -2.76,-1.08 -5.28,-1.08 z"
       style="font-style:normal;font-variant:normal;font-weight:normal;font-stretch:normal;font-size:60px;line-height:125%;font-family:'Adobe Garamond Pro';-inkscape-font-specification:'Adobe Garamond Pro';letter-spacing:0px;word-spacing:0px;display:inline;fill:#29568f;fill-opacity:1;stroke:none;stroke-width:1px;stroke-linecap:butt;stroke-linejoin:miter;stroke-opacity:1"
       id="path4242" /><path
       inkscape:connector-curvature="0"
       transform="translate(0,4.7412109e-6)"
       d="m 358.08281,759.54382 c 0.54,-0.36 0.66,-1.98 -0.06,-2.52 h -6.66 c -1.02,0 -1.08,-0.06 -1.08,-1.14 v -2.7 c -0.24,-0.42 -0.96,-0.42 -1.26,-0.3 -0.6,1.2 -1.74,2.82 -2.52,3.54 -0.6,0.54 -2.1,1.32 -3.84,1.86 -0.24,0.36 -0.18,1.02 0.18,1.26 h 1.68 c 1.2,0 1.26,0.12 1.26,1.74 v 13.74 c 0,3.6 1.08,6.48 6.24,6.48 3.06,0 5.22,-1.5 6.3,-2.76 0.12,-0.36 -0.12,-1.02 -0.6,-1.02 -0.18,0 -0.96,0.66 -1.5,0.84 -0.48,0.18 -1.02,0.3 -1.62,0.3 -3.96,0 -4.38,-3.18 -4.38,-6.66 v -11.22 c 0,-1.26 0.06,-1.44 1.08,-1.44 z"
       style="font-style:normal;font-variant:normal;font-weight:normal;font-stretch:normal;font-size:60px;line-height:125%;font-family:'Adobe Garamond Pro';-inkscape-font-specification:'Adobe Garamond Pro';letter-spacing:0px;word-spacing:0px;display:inline;fill:#29568f;fill-opacity:1;stroke:none;stroke-width:1px;stroke-linecap:butt;stroke-linejoin:miter;stroke-opacity:1"
       id="path4244" /><path
       inkscape:connector-curvature="0"
       transform="translate(0,4.7412109e-6)"
       d="m 377.80125,765.30382 c 2.52,0 3.36,-0.06 3.54,-0.42 0.12,-0.24 0.24,-0.72 0.24,-1.56 0,-3.6 -3.36,-7.14 -8.52,-7.14 -7.2,0 -12.06,6.18 -12.06,13.56 0,2.64 0.72,5.46 2.52,7.8 1.74,2.28 4.8,3.96 8.7,3.96 3.12,0 7.44,-1.5 9.42,-5.58 -0.06,-0.54 -0.48,-0.9 -1.08,-0.72 -1.86,2.34 -3.54,2.94 -5.52,2.94 -6.42,0 -9.96,-5.16 -9.96,-11.22 0,-1.5 0.06,-1.62 1.62,-1.62 z m -11.64,-1.8 c -0.42,0 -0.42,-0.18 -0.42,-0.3 0.06,-1.98 3.12,-5.22 6.66,-5.22 3.48,0 4.62,2.1 4.62,3.78 0,0.78 -0.18,1.02 -0.36,1.14 -0.48,0.36 -1.8,0.6 -6.24,0.6 z"
       style="font-style:normal;font-variant:normal;font-weight:normal;font-stretch:normal;font-size:60px;line-height:125%;font-family:'Adobe Garamond Pro';-inkscape-font-specification:'Adobe Garamond Pro';letter-spacing:0px;word-spacing:0px;display:inline;fill:#29568f;fill-opacity:1;stroke:none;stroke-width:1px;stroke-linecap:butt;stroke-linejoin:miter;stroke-opacity:1"
       id="path4246" /><path
       inkscape:connector-curvature="0"
       transform="translate(0,4.7412109e-6)"
       d="m 388.57031,773.94382 c 0,4.32 -0.06,4.92 -2.28,5.22 l -1.26,0.18 c -0.42,0.3 -0.3,1.32 0.12,1.5 1.68,-0.12 3.48,-0.18 5.64,-0.18 2.1,0 3.84,0.06 5.46,0.18 0.42,-0.18 0.54,-1.2 0.12,-1.5 l -1.08,-0.18 c -2.16,-0.36 -2.28,-0.9 -2.28,-5.22 v -9.18 c 0,-1.74 0.12,-2.58 0.9,-3.6 0.84,-1.14 2.82,-2.1 5.1,-2.1 4.08,0 5.64,2.52 5.64,5.94 v 8.94 c 0,4.32 -0.06,4.86 -2.28,5.22 l -1.14,0.18 c -0.42,0.3 -0.3,1.32 0.12,1.5 1.62,-0.12 3.42,-0.18 5.58,-0.18 2.1,0 3.84,0.06 5.64,0.18 0.42,-0.18 0.54,-1.2 0.12,-1.5 l -1.32,-0.18 c -2.16,-0.3 -2.28,-0.9 -2.28,-5.22 v -10.32 c 0,-4.02 -2.04,-7.44 -7.02,-7.44 -3.06,0 -5.88,1.5 -8.4,3.06 -0.42,0 -0.66,-0.3 -0.66,-0.66 0,-0.54 0,-1.44 0.12,-2.82 -0.12,-0.3 -0.42,-0.42 -0.66,-0.42 -1.2,0.9 -4.62,2.46 -6,2.94 -0.3,0.18 -0.3,0.84 -0.06,1.08 l 0.54,0.36 c 1.62,1.08 1.62,1.38 1.62,3.72 z"
       style="font-style:normal;font-variant:normal;font-weight:normal;font-stretch:normal;font-size:60px;line-height:125%;font-family:'Adobe Garamond Pro';-inkscape-font-specification:'Adobe Garamond Pro';letter-spacing:0px;word-spacing:0px;display:inline;fill:#29568f;fill-opacity:1;stroke:none;stroke-width:1px;stroke-linecap:butt;stroke-linejoin:miter;stroke-opacity:1"
       id="path4248" /><path
       inkscape:connector-curvature="0"
       transform="translate(0,4.7412109e-6)"
       d="m 423.75375,761.82382 c 0,-2.94 0.06,-4.2 0.18,-5.22 -0.06,-0.24 -0.24,-0.36 -0.6,-0.42 -1.32,0.48 -3.66,1.02 -6.42,1.08 -0.42,0.18 -0.48,1.02 -0.12,1.32 l 0.72,0.3 c 1.8,0.78 1.8,1.32 1.8,5.1 v 10.02 c 0,4.86 1.98,7.5 7.26,7.5 3.54,0 6.48,-1.98 8.28,-3.12 0.36,0 0.54,0.3 0.54,0.84 v 2.46 c 0.12,0.24 0.42,0.42 0.72,0.42 2.04,-1.14 5.52,-1.74 7.86,-2.22 0.48,-0.24 0.42,-1.44 0.06,-1.74 -0.84,0.18 -1.62,0.3 -2.34,0.3 -1.68,0 -1.86,-1.8 -1.86,-6.54 v -10.08 c 0,-2.22 0.06,-4.08 0.18,-5.22 -0.06,-0.24 -0.24,-0.36 -0.54,-0.42 -1.32,0.6 -4.62,1.02 -7.02,1.08 -0.48,0.24 -0.48,1.08 -0.06,1.32 l 0.78,0.3 c 1.8,0.72 2.22,0.84 2.22,4.74 v 9.84 c 0,1.86 -0.42,2.76 -1.2,3.48 -1.32,1.14 -3.24,1.8 -4.86,1.8 -4.56,0 -5.58,-2.76 -5.58,-6.9 z"
       style="font-style:normal;font-variant:normal;font-weight:normal;font-stretch:normal;font-size:60px;line-height:125%;font-family:'Adobe Garamond Pro';-inkscape-font-specification:'Adobe Garamond Pro';letter-spacing:0px;word-spacing:0px;display:inline;fill:#29568f;fill-opacity:1;stroke:none;stroke-width:1px;stroke-linecap:butt;stroke-linejoin:miter;stroke-opacity:1"
       id="path4250" /><path
       inkscape:connector-curvature="0"
       transform="translate(0,4.7412109e-6)"
       d="m 450.79687,773.94382 c 0,4.32 -0.06,4.92 -2.28,5.22 l -1.26,0.18 c -0.42,0.3 -0.3,1.32 0.12,1.5 1.68,-0.12 3.48,-0.18 5.64,-0.18 2.1,0 3.84,0.06 5.46,0.18 0.42,-0.18 0.54,-1.2 0.12,-1.5 l -1.08,-0.18 c -2.16,-0.36 -2.28,-0.9 -2.28,-5.22 v -9.18 c 0,-1.74 0.12,-2.58 0.9,-3.6 0.84,-1.14 2.82,-2.1 5.1,-2.1 4.08,0 5.64,2.52 5.64,5.94 v 8.94 c 0,4.32 -0.06,4.86 -2.28,5.22 l -1.14,0.18 c -0.42,0.3 -0.3,1.32 0.12,1.5 1.62,-0.12 3.42,-0.18 5.58,-0.18 2.1,0 3.84,0.06 5.64,0.18 0.42,-0.18 0.54,-1.2 0.12,-1.5 l -1.32,-0.18 c -2.16,-0.3 -2.28,-0.9 -2.28,-5.22 v -10.32 c 0,-4.02 -2.04,-7.44 -7.02,-7.44 -3.06,0 -5.88,1.5 -8.4,3.06 -0.42,0 -0.66,-0.3 -0.66,-0.66 0,-0.54 0,-1.44 0.12,-2.82 -0.12,-0.3 -0.42,-0.42 -0.66,-0.42 -1.2,0.9 -4.62,2.46 -6,2.94 -0.3,0.18 -0.3,0.84 -0.06,1.08 l 0.54,0.36 c 1.62,1.08 1.62,1.38 1.62,3.72 z"
       style="font-style:normal;font-variant:normal;font-weight:normal;font-stretch:normal;font-size:60px;line-height:125%;font-family:'Adobe Garamond Pro';-inkscape-font-specification:'Adobe Garamond Pro';letter-spacing:0px;word-spacing:0px;display:inline;fill:#29568f;fill-opacity:1;stroke:none;stroke-width:1px;stroke-linecap:butt;stroke-linejoin:miter;stroke-opacity:1"
       id="path4252" /><path
       inkscape:connector-curvature="0"
       transform="translate(0,4.7412109e-6)"
       d="m 498.34031,758.34382 c -1.32,0 -1.74,-0.12 -3.66,-0.96 -1.38,-0.6 -3.48,-1.2 -5.76,-1.2 -5.34,0 -9.78,3.9 -9.78,9.06 0,3.84 2.46,6.18 4.5,7.26 0,0.3 -0.3,0.78 -0.6,1.14 -1.02,1.08 -2.16,2.1 -3.18,2.76 -0.66,0.48 -0.9,0.72 -0.9,1.02 0,2.1 2.04,4.14 4.38,4.74 0.54,0.36 0.06,0.9 -0.48,1.44 -1.38,1.38 -3.06,2.94 -4.08,4.02 -0.42,0.48 -0.66,1.26 -0.66,2.22 0,3 2.58,6.96 9.96,6.96 7.8,0 14.94,-4.8 14.94,-11.34 0,-6 -5.04,-6.6 -8.4,-6.6 -2.64,0 -5.1,0.18 -7.14,0.18 -2.82,0 -4.2,-1.14 -4.2,-2.52 0,-1.74 1.92,-2.88 2.64,-3.3 0.72,0.06 1.56,0.18 2.64,0.18 7.62,0 10.08,-5.4 10.08,-9.54 0,-1.02 0,-2.04 -0.12,-3.06 h 4.32 c 0.9,-0.12 1.02,-2.16 0.36,-2.46 z m -5.64,24.24 c 4.32,0 6.84,1.56 6.84,5.22 0,3.42 -3.54,6.42 -8.88,6.42 -5.46,0 -8.04,-2.7 -8.04,-5.94 0,-2.28 1.44,-4.14 2.88,-5.04 0.84,-0.54 3.24,-0.66 5.16,-0.66 z m -3.24,-10.92 c -2.88,0 -5.46,-2.76 -5.46,-7.02 0,-4.08 2.16,-6.72 5.04,-6.72 3.66,0 5.34,3.42 5.34,7.5 0,3.66 -1.68,6.24 -4.92,6.24 z"
       style="font-style:normal;font-variant:normal;font-weight:normal;font-stretch:normal;font-size:60px;line-height:125%;font-family:'Adobe Garamond Pro';-inkscape-font-specification:'Adobe Garamond Pro';letter-spacing:0px;word-spacing:0px;display:inline;fill:#29568f;fill-opacity:1;stroke:none;stroke-width:1px;stroke-linecap:butt;stroke-linejoin:miter;stroke-opacity:1"
       id="path4254" /><path
       inkscape:connector-curvature="0"
       transform="translate(0,4.7412109e-6)"
       d="m 514.31906,756.18382 c -4.56,0 -8.16,2.46 -8.16,6.84 0,3.3 2.46,5.4 5.94,7.38 2.22,1.26 4.62,2.76 4.62,5.52 0,2.58 -1.86,3.84 -4.02,3.84 -3.42,0 -5.34,-2.88 -6.36,-6.18 -0.3,-0.36 -1.08,-0.3 -1.38,0.06 -0.12,1.98 0.24,4.92 0.72,6.06 1.5,1.2 3.6,1.8 6.42,1.8 4.44,0 8.64,-2.28 8.64,-6.84 0,-4.26 -2.94,-6.3 -6.12,-8.1 -2.1,-1.2 -4.62,-2.52 -4.62,-4.98 0,-2.16 1.5,-3.66 3.84,-3.66 2.46,0 4.26,1.74 5.28,4.38 0.3,0.36 1.2,0.24 1.44,-0.18 0,-1.62 -0.42,-3.54 -0.96,-4.86 -0.54,-0.48 -2.76,-1.08 -5.28,-1.08 z"
       style="font-style:normal;font-variant:normal;font-weight:normal;font-stretch:normal;font-size:60px;line-height:125%;font-family:'Adobe Garamond Pro';-inkscape-font-specification:'Adobe Garamond Pro';letter-spacing:0px;word-spacing:0px;display:inline;fill:#29568f;fill-opacity:1;stroke:none;stroke-width:1px;stroke-linecap:butt;stroke-linejoin:miter;stroke-opacity:1"
       id="path4256" /><path
       inkscape:connector-curvature="0"
       transform="translate(0,4.7412109e-6)"
       d="m 532.035,761.82382 c 0,-2.94 0.06,-4.2 0.18,-5.22 -0.06,-0.24 -0.24,-0.36 -0.6,-0.42 -1.32,0.48 -3.66,1.02 -6.42,1.08 -0.42,0.18 -0.48,1.02 -0.12,1.32 l 0.72,0.3 c 1.8,0.78 1.8,1.32 1.8,5.1 v 10.02 c 0,4.86 1.98,7.5 7.26,7.5 3.54,0 6.48,-1.98 8.28,-3.12 0.36,0 0.54,0.3 0.54,0.84 v 2.46 c 0.12,0.24 0.42,0.42 0.72,0.42 2.04,-1.14 5.52,-1.74 7.86,-2.22 0.48,-0.24 0.42,-1.44 0.06,-1.74 -0.84,0.18 -1.62,0.3 -2.34,0.3 -1.68,0 -1.86,-1.8 -1.86,-6.54 v -10.08 c 0,-2.22 0.06,-4.08 0.18,-5.22 -0.06,-0.24 -0.24,-0.36 -0.54,-0.42 -1.32,0.6 -4.62,1.02 -7.02,1.08 -0.48,0.24 -0.48,1.08 -0.06,1.32 l 0.78,0.3 c 1.8,0.72 2.22,0.84 2.22,4.74 v 9.84 c 0,1.86 -0.42,2.76 -1.2,3.48 -1.32,1.14 -3.24,1.8 -4.86,1.8 -4.56,0 -5.58,-2.76 -5.58,-6.9 z"
       style="font-style:normal;font-variant:normal;font-weight:normal;font-stretch:normal;font-size:60px;line-height:125%;font-family:'Adobe Garamond Pro';-inkscape-font-specification:'Adobe Garamond Pro';letter-spacing:0px;word-spacing:0px;display:inline;fill:#29568f;fill-opacity:1;stroke:none;stroke-width:1px;stroke-linecap:butt;stroke-linejoin:miter;stroke-opacity:1"
       id="path4258" /><path
       inkscape:connector-curvature="0"
       transform="translate(0,4.7412109e-6)"
       d="m 559.07812,773.94382 c 0,4.32 -0.06,4.92 -2.28,5.22 l -1.26,0.18 c -0.42,0.3 -0.3,1.32 0.12,1.5 1.68,-0.12 3.48,-0.18 5.64,-0.18 2.1,0 3.84,0.06 5.46,0.18 0.42,-0.18 0.54,-1.2 0.12,-1.5 l -1.08,-0.18 c -2.16,-0.36 -2.28,-0.9 -2.28,-5.22 v -9.18 c 0,-1.74 0.12,-2.58 0.9,-3.6 0.84,-1.14 2.82,-2.1 5.1,-2.1 4.08,0 5.64,2.52 5.64,5.94 v 8.94 c 0,4.32 -0.06,4.86 -2.28,5.22 l -1.14,0.18 c -0.42,0.3 -0.3,1.32 0.12,1.5 1.62,-0.12 3.42,-0.18 5.58,-0.18 2.1,0 3.84,0.06 5.64,0.18 0.42,-0.18 0.54,-1.2 0.12,-1.5 l -1.32,-0.18 c -2.16,-0.3 -2.28,-0.9 -2.28,-5.22 v -10.32 c 0,-4.02 -2.04,-7.44 -7.02,-7.44 -3.06,0 -5.88,1.5 -8.4,3.06 -0.42,0 -0.66,-0.3 -0.66,-0.66 0,-0.54 0,-1.44 0.12,-2.82 -0.12,-0.3 -0.42,-0.42 -0.66,-0.42 -1.2,0.9 -4.62,2.46 -6,2.94 -0.3,0.18 -0.3,0.84 -0.06,1.08 l 0.54,0.36 c 1.62,1.08 1.62,1.38 1.62,3.72 z"
       style="font-style:normal;font-variant:normal;font-weight:normal;font-stretch:normal;font-size:60px;line-height:125%;font-family:'Adobe Garamond Pro';-inkscape-font-specification:'Adobe Garamond Pro';letter-spacing:0px;word-spacing:0px;display:inline;fill:#29568f;fill-opacity:1;stroke:none;stroke-width:1px;stroke-linecap:butt;stroke-linejoin:miter;stroke-opacity:1"
       id="path4260" /><path
       inkscape:connector-curvature="0"
       transform="translate(0,4.7412109e-6)"
       d="m 610.16156,745.56382 c 0,-2.64 0.12,-5.64 0.18,-7.44 -0.12,-0.24 -0.36,-0.36 -0.6,-0.36 -2.16,1.14 -4.98,2.04 -6.48,2.52 -0.3,0.18 -0.3,1.02 0,1.2 l 0.6,0.36 c 1.8,1.08 1.86,1.44 1.86,4.98 v 9.06 c 0,0.48 -0.06,0.84 -0.36,0.84 -0.66,-0.24 -1.98,-0.54 -4.02,-0.54 -8.16,0 -14.52,5.4 -14.52,13.8 0,6.3 4.44,11.52 11.1,11.52 2.88,0 4.92,-0.96 7.56,-2.76 h 0.24 c 0.12,0.24 0.12,0.96 0.12,1.86 v 1.02 c 0,0.3 0.3,0.48 0.66,0.48 1.68,-0.66 5.4,-1.56 7.92,-1.92 0.54,-0.3 0.48,-1.8 0.06,-1.92 -0.9,0.3 -1.92,0.6 -2.58,0.6 -1.68,0 -1.74,-2.22 -1.74,-6.96 z m -4.44,29.16 c 0,0.96 -0.06,1.86 -0.42,2.22 -0.96,0.96 -3,1.68 -4.62,1.68 -5.88,0 -8.94,-5.16 -8.94,-10.62 0,-5.22 2.82,-9.96 8.28,-9.96 2.34,0 4.14,1.26 5.04,2.52 0.42,0.6 0.66,1.14 0.66,2.34 z"
       style="font-style:normal;font-variant:normal;font-weight:normal;font-stretch:normal;font-size:60px;line-height:125%;font-family:'Adobe Garamond Pro';-inkscape-font-specification:'Adobe Garamond Pro';letter-spacing:0px;word-spacing:0px;display:inline;fill:#29568f;fill-opacity:1;stroke:none;stroke-width:1px;stroke-linecap:butt;stroke-linejoin:miter;stroke-opacity:1"
       id="path4262" /><g
       style="font-style:normal;font-weight:normal;font-size:40px;line-height:125%;font-family:sans-serif;letter-spacing:0px;word-spacing:0px;fill:#d39100;fill-opacity:1;stroke:none;stroke-width:1px;stroke-linecap:butt;stroke-linejoin:miter;stroke-opacity:1"
       id="text3385"><path
         inkscape:connector-curvature="0"
         d="m 296.74687,759.54382 c 0.54,-0.36 0.66,-1.98 -0.06,-2.52 h -6.66 c -1.02,0 -1.08,-0.06 -1.08,-1.14 v -2.7 c -0.24,-0.42 -0.96,-0.42 -1.26,-0.3 -0.6,1.2 -1.74,2.82 -2.52,3.54 -0.6,0.54 -2.1,1.32 -3.84,1.86 -0.24,0.36 -0.18,1.02 0.18,1.26 h 1.68 c 1.2,0 1.26,0.12 1.26,1.74 v 13.74 c 0,3.6 1.08,6.48 6.24,6.48 3.06,0 5.22,-1.5 6.3,-2.76 0.12,-0.36 -0.12,-1.02 -0.6,-1.02 -0.18,0 -0.96,0.66 -1.5,0.84 -0.48,0.18 -1.02,0.3 -1.62,0.3 -3.96,0 -4.38,-3.18 -4.38,-6.66 v -11.22 c 0,-1.26 0.06,-1.44 1.08,-1.44 z"
         style="font-style:normal;font-variant:normal;font-weight:normal;font-stretch:normal;font-size:60px;font-family:'Adobe Garamond Pro';-inkscape-font-specification:'Adobe Garamond Pro';fill:#d39100;fill-opacity:1"
         id="path4265" /><path
         inkscape:connector-curvature="0"
         d="m 314.24531,756.18382 c -9.96,0 -14.52,6.9 -14.52,13.38 0,3.9 1.38,6.84 3.48,8.88 2.1,2.04 5.04,3.06 8.22,3.06 3.48,0 7.98,-1.68 10.02,-6.12 -0.06,-0.54 -0.6,-0.96 -1.08,-0.84 -1.38,2.04 -3.18,3.6 -6.66,3.6 -6.42,0 -9.66,-5.58 -9.66,-10.26 0,-6.36 4.08,-9.66 8.28,-9.66 2.46,0 4.68,1.56 6,3.18 0.24,0.3 0.54,0.42 0.84,0.42 0.72,0 1.32,-1.14 1.32,-2.22 0,-1.02 -0.42,-1.98 -0.9,-2.4 -1.62,-0.72 -3.96,-1.02 -5.34,-1.02 z"
         style="font-style:normal;font-variant:normal;font-weight:normal;font-stretch:normal;font-size:60px;font-family:'Adobe Garamond Pro';-inkscape-font-specification:'Adobe Garamond Pro';fill:#d39100;fill-opacity:1"
         id="path4267" /></g><g
       style="font-style:normal;font-weight:normal;font-size:40px;line-height:125%;font-family:sans-serif;letter-spacing:0px;word-spacing:0px;fill:#29568f;fill-opacity:1;stroke:none;stroke-width:1px;stroke-linecap:butt;stroke-linejoin:miter;stroke-opacity:1"
       id="text3386"><path
         inkscape:connector-curvature="0"
         d="m 260.28687,761.16382 c 1.32,0 2.28,0.84 2.58,1.74 -0.72,1.86 -4.2,7.2 -7.14,9.78 -2.88,2.58 -4.44,3.12 -4.8,3.12 -0.42,0 -0.72,-0.24 -0.72,-0.78 0,-3.24 2.94,-9.36 6.3,-12.06 1.56,-1.26 2.52,-1.8 3.78,-1.8 z m 3.96,-0.78 c -0.3,-0.84 -1.44,-1.32 -2.22,-1.32 -4.8,0 -9.12,4.02 -12,7.56 -3.54,4.32 -4.56,8.16 -4.56,9.24 0,1.38 0.78,2.7 2.46,2.7 2.46,0 7.74,-3.3 11.34,-7.02 l 0.12,0.06 -1.5,3.78 c -0.42,1.08 -0.48,1.56 -0.48,1.86 0,0.42 0.36,1.32 4.32,1.32 9.72,0 15.54,-6.78 15.54,-14.46 0,-8.04 -6.24,-15.6 -17.7,-15.6 -12.36,0 -23.7,8.88 -23.7,22.98 0,12.66 10.32,18.54 20.22,18.54 3.36,0 7.98,-0.78 11.58,-3.06 0.18,-0.48 -0.06,-0.96 -0.48,-1.14 -1.98,0.84 -4.98,2.1 -9.3,2.1 -13.74,0 -17.88,-9.42 -17.88,-16.5 0,-11.04 7.14,-20.88 19.02,-20.88 8.82,0 15.66,5.34 15.66,13.8 0,7.56 -5.34,12 -11.7,12.24 -1.56,0.06 -1.92,-0.54 -1.38,-1.92 0.96,-2.58 6.24,-14.82 7.02,-16.62 -0.54,-0.6 -1.92,-1.08 -2.88,-0.72 z"
         style="font-style:normal;font-variant:normal;font-weight:normal;font-stretch:normal;font-size:60px;font-family:'Adobe Garamond Pro';-inkscape-font-specification:'Adobe Garamond Pro';fill:#29568f;fill-opacity:1"
         id="path4270" /></g></g></g></g><g
     inkscape:groupmode="layer"
     id="layer2"
     inkscape:label="Layer 2"
     style="display:none"
     transform="translate(-175.33922,-341.90172)" /></svg>